<?xml version="1.0"?>
<!-- Created by MetaPost 2.10 on 2024.10.04:1625 -->
<svg version="1.1" xmlns="http://www.w3.org/2000/svg" xmlns:xlink="http://www.w3.org/1999/xlink" width="75.826904" height="47.821213" viewBox="0 0 75.826904 47.821213">
<!-- Original BoundingBox: -37.913452 -23.910599 37.913452 23.910614 -->
  <defs>
    <g transform="scale(0.009963,0.009963)" id="GLYPHcmex10_18">
      <path style="fill-rule: evenodd;" d="M700.000000 2349.000000C700.000000 2345.000000,698.000000 2343.000000,696.000000 2340.000000C659.000000 2303.000000,592.000000 2236.000000,525.000000 2128.000000C364.000000 1870.000000,291.000000 1545.000000,291.000000 1160.000000C291.000000 891.000000,327.000000 544.000000,492.000000 246.000000C571.000000 104.000000,653.000000 22.000000,697.000000 -22.000000C700.000000 -25.000000,700.000000 -27.000000,700.000000 -30.000000C700.000000 -40.000000,693.000000 -40.000000,679.000000 -40.000000C665.000000 -40.000000,663.000000 -40.000000,648.000000 -25.000000C313.000000 280.000000,208.000000 738.000000,208.000000 1159.000000C208.000000 1552.000000,298.000000 1948.000000,552.000000 2247.000000C572.000000 2270.000000,610.000000 2311.000000,651.000000 2347.000000C663.000000 2359.000000,665.000000 2359.000000,679.000000 2359.000000C693.000000 2359.000000,700.000000 2359.000000,700.000000 2349.000000"></path>
    </g>
    <g transform="scale(0.009963,0.009963)" id="GLYPHcmex10_19">
      <path style="fill-rule: evenodd;" d="M527.000000 1160.000000C527.000000 767.000000,437.000000 371.000000,183.000000 72.000000C163.000000 49.000000,125.000000 8.000000,84.000000 -28.000000C72.000000 -40.000000,70.000000 -40.000000,56.000000 -40.000000C44.000000 -40.000000,35.000000 -40.000000,35.000000 -30.000000C35.000000 -26.000000,39.000000 -22.000000,41.000000 -20.000000C76.000000 16.000000,143.000000 83.000000,210.000000 191.000000C371.000000 449.000000,444.000000 774.000000,444.000000 1159.000000C444.000000 1428.000000,408.000000 1775.000000,243.000000 2073.000000C164.000000 2215.000000,81.000000 2298.000000,39.000000 2340.000000C37.000000 2343.000000,35.000000 2346.000000,35.000000 2349.000000C35.000000 2359.000000,44.000000 2359.000000,56.000000 2359.000000C70.000000 2359.000000,72.000000 2359.000000,87.000000 2344.000000C422.000000 2039.000000,527.000000 1581.000000,527.000000 1160.000000"></path>
    </g>
    <g transform="scale(0.009963,0.009963)" id="GLYPHcmsy10_15">
      <path style="fill-rule: evenodd;" d="M444.000000 -250.000000C444.000000 -357.000000,355.000000 -444.000000,250.000000 -444.000000C142.000000 -444.000000,55.000000 -355.000000,55.000000 -250.000000C55.000000 -144.000000,142.000000 -56.000000,250.000000 -56.000000C355.000000 -56.000000,444.000000 -143.000000,444.000000 -250.000000"></path>
    </g>
  </defs>
  <g transform="matrix(2.000000,-0.000000,-0.000000,2.000000,0.000000 0.797012)" style="fill: rgb(0.000000%,0.000000%,0.000000%);">
    <use xlink:href="#GLYPHcmex10_18"></use>
  </g>
  <g transform="matrix(2.000000,-0.000000,-0.000000,2.000000,17.988098 15.937012)" style="fill: rgb(0.000000%,0.000000%,0.000000%);">
    <use xlink:href="#GLYPHcmsy10_15"></use>
  </g>
  <g transform="matrix(2.000000,-0.000000,-0.000000,2.000000,17.988098 41.839813)" style="fill: rgb(0.000000%,0.000000%,0.000000%);">
    <use xlink:href="#GLYPHcmsy10_15"></use>
  </g>
  <g transform="matrix(2.000000,-0.000000,-0.000000,2.000000,47.876099 41.839813)" style="fill: rgb(0.000000%,0.000000%,0.000000%);">
    <use xlink:href="#GLYPHcmsy10_15"></use>
  </g>
  <g transform="matrix(2.000000,-0.000000,-0.000000,2.000000,61.159607 0.797012)" style="fill: rgb(0.000000%,0.000000%,0.000000%);">
    <use xlink:href="#GLYPHcmex10_19"></use>
  </g>
</svg>
